<?xml version="1.0" standalone="no"?>
<!DOCTYPE svg PUBLIC "-//W3C//DTD SVG 20010904//EN"
 "http://www.w3.org/TR/2001/REC-SVG-20010904/DTD/svg10.dtd">
<svg version="1.0" xmlns="http://www.w3.org/2000/svg"
 width="740.000000pt" height="740.000000pt" viewBox="0 0 740.000000 740.000000"
 preserveAspectRatio="xMidYMid meet">

<g transform="translate(0.000000,740.000000) scale(0.100000,-0.100000)"
fill="#000000" stroke="none">
<path d="M2540 6819 c-177 -30 -326 -177 -360 -358 -11 -58 -14 -331 -4 -368
4 -13 12 -23 19 -23 17 0 25 -23 25 -68 0 -41 -13 -68 -28 -58 -16 10 -22 -48
-22 -214 0 -129 -3 -159 -15 -163 -20 -8 -20 -227 1 -227 21 0 20 -235 -1
-243 -21 -9 -20 -436 2 -452 12 -9 14 -124 16 -782 1 -424 6 -775 10 -779 4
-5 12 -3 16 5 6 9 10 6 13 -11 5 -29 -4 -61 -17 -56 -5 2 -12 -11 -17 -29 -5
-18 -7 -454 -6 -970 3 -890 4 -938 21 -935 22 4 25 -6 29 -99 3 -68 1 -75 -14
-71 -27 7 -23 -23 12 -96 36 -76 116 -160 188 -196 115 -58 67 -56 1294 -56
797 0 1143 3 1180 11 126 27 246 121 299 234 36 74 38 110 8 102 -15 -4 -19
-2 -15 10 3 8 6 46 6 84 0 67 1 69 25 69 l25 0 0 953 c0 523 -3 962 -6 975 -4
14 -12 21 -20 18 -18 -7 -27 26 -15 55 5 13 10 18 10 10 1 -11 4 -11 16 -1 14
12 16 80 14 568 -1 500 1 556 15 564 14 8 16 49 16 369 -1 305 -3 361 -15 366
-13 4 -15 75 -15 488 0 417 -2 484 -15 495 -12 10 -15 10 -16 -1 -1 -34 -18
31 -18 74 -1 42 2 49 25 57 l26 10 -4 203 -3 202 -37 78 c-68 141 -188 233
-338 256 -82 14 -2231 13 -2310 0z m578 -151 c7 -7 12 -26 12 -42 0 -85 50
-155 125 -175 54 -15 836 -15 888 0 77 21 127 90 127 175 0 17 6 37 14 43 11
9 89 12 298 9 l283 -3 50 -27 c60 -31 104 -77 136 -138 l24 -45 3 -2745 c2
-2531 1 -2749 -14 -2798 -21 -66 -81 -134 -148 -170 l-51 -27 -1165 0 -1165 0
-54 30 c-29 16 -71 49 -92 74 -75 85 -69 -161 -69 2872 0 3053 -7 2784 73
2875 41 47 76 69 142 90 55 18 566 19 583 2z"/>
</g>
</svg>
